<svg xmlns="http://www.w3.org/2000/svg" viewBox="0 0 760 560" role="img" aria-labelledby="title desc">
  <title id="title">企业信息化与工程系统示意图</title>
  <desc id="desc">服务器、网络节点、电力设施与运维面板组成的抽象基础设施图形。</desc>
  <defs>
    <linearGradient id="panel" x1="0" y1="0" x2="1" y2="1">
      <stop offset="0" stop-color="#ffffff"/>
      <stop offset="1" stop-color="#eef3f1"/>
    </linearGradient>
    <linearGradient id="rack" x1="0" y1="0" x2="1" y2="1">
      <stop offset="0" stop-color="#24313a"/>
      <stop offset="1" stop-color="#101820"/>
    </linearGradient>
    <filter id="shadow" x="-20%" y="-20%" width="140%" height="150%">
      <feDropShadow dx="0" dy="18" stdDeviation="18" flood-color="#172026" flood-opacity="0.18"/>
    </filter>
  </defs>

  <rect width="760" height="560" rx="28" fill="#f7faf9"/>
  <path d="M65 408 C144 315 184 332 252 240 C322 145 398 191 463 116 C531 38 629 63 705 28" fill="none" stroke="#dce6e1" stroke-width="3"/>
  <path d="M84 465 L198 352 L292 398 L421 253 L540 314 L676 158" fill="none" stroke="#1f6fb2" stroke-width="4" stroke-linecap="round" stroke-linejoin="round"/>
  <path d="M90 432 L205 307 L310 341 L428 192 L550 256 L682 112" fill="none" stroke="#227a59" stroke-width="4" stroke-linecap="round" stroke-linejoin="round" opacity="0.88"/>

  <g filter="url(#shadow)">
    <rect x="82" y="142" width="184" height="290" rx="18" fill="url(#rack)"/>
    <rect x="107" y="174" width="134" height="42" rx="7" fill="#34444f"/>
    <rect x="107" y="235" width="134" height="42" rx="7" fill="#34444f"/>
    <rect x="107" y="296" width="134" height="42" rx="7" fill="#34444f"/>
    <rect x="107" y="357" width="134" height="42" rx="7" fill="#34444f"/>
    <circle cx="127" cy="195" r="5" fill="#7ec6a3"/>
    <circle cx="127" cy="256" r="5" fill="#c9892b"/>
    <circle cx="127" cy="317" r="5" fill="#7ec6a3"/>
    <circle cx="127" cy="378" r="5" fill="#1f6fb2"/>
    <rect x="152" y="190" width="66" height="8" rx="4" fill="#7c8a93"/>
    <rect x="152" y="251" width="66" height="8" rx="4" fill="#7c8a93"/>
    <rect x="152" y="312" width="66" height="8" rx="4" fill="#7c8a93"/>
    <rect x="152" y="373" width="66" height="8" rx="4" fill="#7c8a93"/>
  </g>

  <g filter="url(#shadow)">
    <rect x="318" y="78" width="308" height="188" rx="20" fill="url(#panel)" stroke="#d9e0e5"/>
    <rect x="344" y="111" width="118" height="16" rx="8" fill="#1f6fb2"/>
    <rect x="344" y="145" width="236" height="10" rx="5" fill="#c8d4db"/>
    <rect x="344" y="171" width="196" height="10" rx="5" fill="#c8d4db"/>
    <rect x="344" y="205" width="62" height="30" rx="7" fill="#227a59"/>
    <rect x="420" y="205" width="62" height="30" rx="7" fill="#c9892b"/>
    <rect x="496" y="205" width="62" height="30" rx="7" fill="#24313a"/>
  </g>

  <g filter="url(#shadow)">
    <rect x="370" y="328" width="246" height="132" rx="18" fill="#ffffff" stroke="#d9e0e5"/>
    <path d="M407 418 L451 372 L486 397 L530 352 L579 384" fill="none" stroke="#1f6fb2" stroke-width="8" stroke-linecap="round" stroke-linejoin="round"/>
    <circle cx="407" cy="418" r="9" fill="#1f6fb2"/>
    <circle cx="451" cy="372" r="9" fill="#227a59"/>
    <circle cx="486" cy="397" r="9" fill="#c9892b"/>
    <circle cx="530" cy="352" r="9" fill="#227a59"/>
    <circle cx="579" cy="384" r="9" fill="#1f6fb2"/>
  </g>

  <g filter="url(#shadow)">
    <rect x="555" y="292" width="110" height="176" rx="18" fill="#24313a"/>
    <path d="M612 321 L584 374 H611 L593 438 L640 360 H613 Z" fill="#f0b34c"/>
    <rect x="584" y="447" width="52" height="8" rx="4" fill="#7c8a93"/>
  </g>

  <g fill="#ffffff" stroke="#d9e0e5" stroke-width="3">
    <circle cx="84" cy="465" r="13"/>
    <circle cx="198" cy="352" r="13"/>
    <circle cx="292" cy="398" r="13"/>
    <circle cx="421" cy="253" r="13"/>
    <circle cx="540" cy="314" r="13"/>
    <circle cx="676" cy="158" r="13"/>
  </g>
  <g fill="#227a59">
    <circle cx="84" cy="465" r="5"/>
    <circle cx="198" cy="352" r="5"/>
    <circle cx="292" cy="398" r="5"/>
    <circle cx="421" cy="253" r="5"/>
    <circle cx="540" cy="314" r="5"/>
    <circle cx="676" cy="158" r="5"/>
  </g>
</svg>
